<svg width="12" height="10" fill="none" xmlns="http://www.w3.org/2000/svg"><path fill-rule="evenodd" clip-rule="evenodd" d="m10.961 2.272 1.025 4.3a.288.288 0 0 1-.152.35.275.275 0 0 1-.134.023h-.815c-.14 1.182-1.133 2.098-2.336 2.098-1.204 0-2.196-.916-2.337-2.098h-.4c-.14 1.196-1.144 2.123-2.36 2.123-1.22 0-2.225-.93-2.363-2.129H.295A.278.278 0 0 1 .06 6.83a.288.288 0 0 1-.049-.258l1.027-4.3c.072-.474.516-1.34 1.705-1.34.079 0 .154.032.21.089a.305.305 0 0 1 0 .427.295.295 0 0 1-.21.089c-.957 0-1.106.75-1.118.833L.679 6.343h.414c.152-1.183 1.15-2.097 2.358-2.097 1.208 0 2.205.913 2.358 2.095l.406.002C6.367 5.173 7.354 4.27 8.55 4.27c1.197 0 2.185.906 2.334 2.079v-.011h.435l-.944-3.969c-.014-.082-.156-.833-1.118-.833a.295.295 0 0 1-.21-.089.305.305 0 0 1 0-.427.295.295 0 0 1 .21-.089c1.19 0 1.634.866 1.705 1.34Zm-5.74 4.673a1.856 1.856 0 0 0-.004-.604A1.8 1.8 0 0 0 3.45 4.84 1.8 1.8 0 0 0 1.66 6.657a1.8 1.8 0 0 0 1.793 1.818 1.8 1.8 0 0 0 1.77-1.53Zm5.073 0a1.78 1.78 0 0 0-1.746-2.081A1.78 1.78 0 0 0 6.78 6.657 1.776 1.776 0 0 0 8.548 8.45c.88 0 1.61-.652 1.746-1.505Z" fill="#000"/></svg>