<svg xmlns="http://www.w3.org/2000/svg">

  <symbol viewBox="0 0 31 21" id="icon-present">
    <svg width="31" height="21" fill="none" xmlns="http://www.w3.org/2000/svg">
      <path
        d="M30.556.43a1.54 1.54 0 0 0-.499-.318 1.607 1.607 0 0 0-1.179 0 1.54 1.54 0 0 0-.499.318L10.374 17.496 2.578 10.11a1.582 1.582 0 0 0-1.072-.39 1.576 1.576 0 0 0-1.057.425c-.28.266-.442.625-.449 1.001-.007.377.14.74.411 1.016l8.88 8.412c.142.135.31.243.497.316a1.596 1.596 0 0 0 1.67-.316L30.556 2.482c.284-.274.444-.642.444-1.026S30.84.703 30.556.43Z"
        fill="#3DC644"/>
    </svg>
  </symbol>

  <symbol viewBox="0 0 27 27" id="icon-absent">
    <svg width="27" height="27" fill="none" xmlns="http://www.w3.org/2000/svg">
      <path
        d="m15.644 13.507 10.91-10.92a1.503 1.503 0 0 0 0-2.14 1.524 1.524 0 0 0-2.14 0l-10.909 10.92L2.586.447a1.504 1.504 0 0 0-2.14 0 1.524 1.524 0 0 0 0 2.14l10.92 10.92-10.92 10.91a1.503 1.503 0 0 0 0 2.139 1.514 1.514 0 0 0 2.14 0l10.919-10.91 10.909 10.91a1.514 1.514 0 0 0 2.14-2.14l-10.91-10.91Z"
        fill="#F25B26"/>
    </svg>
  </symbol>
</svg>
